<?xml version="1.0" encoding="UTF-8"?>
<svg id="Capa_1" xmlns="http://www.w3.org/2000/svg" version="1.1" viewBox="0 0 98.91 111.79">
  <!-- Generator: Adobe Illustrator 29.7.1, SVG Export Plug-In . SVG Version: 2.1.1 Build 8)  -->
  <defs>
    <style>
      .st0 {
        fill: #00377b;
      }
    </style>
  </defs>
  <path class="st0" d="M22.64,20.19h49.82c1.28,0,2.47.52,3.31,1.36.84.84,1.36,2,1.36,3.31v12.37c0,.2-.09.38-.2.49l-26.19,26.21,6.15,6.15,19.04-19.04c.26-.29.73-.29.99,0,.15.12.2.29.2.49v35.39c0,1.28-.52,2.44-1.36,3.28-.84.84-2.03,1.39-3.31,1.39H22.64c-1.31,0-2.47-.55-3.31-1.39l-.03-.03c-.84-.84-1.34-2-1.34-3.25V24.86c0-1.28.52-2.47,1.36-3.31.84-.84,2-1.36,3.31-1.36h0ZM72.45,21.58H22.64c-.9,0-1.71.38-2.32.96-.58.61-.96,1.42-.96,2.32v62.07c0,.87.35,1.68.93,2.26l.03.03c.61.61,1.42.96,2.32.96h49.82c.9,0,1.71-.35,2.32-.96.58-.58.96-1.39.96-2.29v-33.7l-18.35,18.35c-.29.26-.73.26-.99,0l-7.17-7.14c-.26-.29-.26-.73,0-.99l26.51-26.51v-12.08c0-.9-.38-1.71-.96-2.32-.61-.58-1.42-.96-2.32-.96h0Z"/>
  <path class="st0" d="M28.18,34.94c-.41,0-.7-.32-.7-.72,0-.38.29-.7.7-.7h38.73c.41,0,.7.32.7.7,0,.41-.29.72-.7.72H28.18Z"/>
  <path class="st0" d="M28.18,49.36c-.41,0-.7-.32-.7-.7s.29-.7.7-.7h30.53c.38,0,.7.32.7.7s-.32.7-.7.7h-30.53Z"/>
  <path class="st0" d="M28.18,63.82c-.41,0-.7-.32-.7-.73,0-.38.29-.7.7-.7h22.38c.38,0,.7.32.7.7,0,.41-.32.73-.7.73h-22.38Z"/>
  <path class="st0" d="M28.18,78.25c-.41,0-.7-.32-.7-.7s.29-.7.7-.7h12.74c.38,0,.7.32.7.7s-.32.7-.7.7h-12.74Z"/>
  <path class="st0" d="M87.17,39.81l-6.15-6.15-30.28,30.28,6.15,6.15,30.28-30.28ZM81.51,32.15l7.14,7.17c.26.26.26.7,0,.99l-31.27,31.27c-.09.09-.2.14-.32.17l-5.25,1.71-5.25,1.65c-.38.12-.75-.09-.87-.43-.06-.14-.03-.29,0-.44,1.1-3.51,2.24-7,3.37-10.48.03-.12.09-.23.17-.32l31.3-31.3c.26-.26.7-.26.99,0h0ZM48.68,69.42l-1.25,3.95,3.98-1.25,4.15-1.37c-1.86-1.83-3.69-3.66-5.52-5.52l-1.36,4.18Z"/>
</svg>