<?xml version="1.0" encoding="UTF-8"?>
<svg id="Capa_1" xmlns="http://www.w3.org/2000/svg" version="1.1" viewBox="0 0 98.91 111.79">
  <!-- Generator: Adobe Illustrator 29.7.1, SVG Export Plug-In . SVG Version: 2.1.1 Build 8)  -->
  <defs>
    <style>
      .st0 {
        fill: #00377b;
      }
    </style>
  </defs>
  <path class="st0" d="M15.71,19.21h50.22c.78,0,1.5.34,2,.84.5.5.84,1.22.84,2v16.96c0,.44-.34.75-.78.75-.22,0-.41-.09-.53-.22-1.03-.97-2-2.03-2.96-3.18-.72-.9-1.4-1.84-2.06-2.84-2.78,4.18-5.96,7.27-9.57,9.51-3.71,2.34-7.89,3.8-12.51,4.74v14.22c0,1.72.03,3.27.12,4.68.09,1.43.22,2.71.41,3.9.06.4-.25.78-.65.84H15.71c-.78,0-1.47-.31-2-.81-.5-.53-.81-1.25-.81-2V22.05c0-.78.31-1.5.81-2l.06-.03c.5-.5,1.19-.81,1.93-.81h0ZM65.92,20.74H15.71c-.34,0-.65.13-.9.34l-.03.03c-.22.25-.37.59-.37.94v46.56c0,.34.16.69.37.94.25.22.59.37.93.37h23.55c-.12-.97-.22-2-.28-3.15-.09-1.47-.12-3.06-.12-4.77v-14.84c0-.34.25-.65.59-.75,4.71-.87,8.92-2.31,12.6-4.62,3.71-2.34,6.95-5.58,9.73-10.07.06-.09.16-.16.25-.22.34-.22.81-.12,1.03.22.84,1.34,1.72,2.59,2.62,3.71.5.62,1.03,1.22,1.56,1.78v-15.16c0-.34-.12-.69-.37-.94-.25-.22-.59-.37-.94-.37h0Z"/>
  <path class="st0" d="M30.43,19.21h18.62c.44,0,.81.19,1.09.47.31.31.47.69.47,1.12v6.63c0,.44-.16.81-.44,1.12-.31.28-.69.47-1.12.47h-18.62c-.44,0-.81-.19-1.09-.47-.31-.31-.47-.69-.47-1.12v-6.63c0-.44.16-.81.44-1.12.31-.28.69-.47,1.12-.47h0ZM49.04,20.74h-18.65l-.03.06v6.63l.03.06h18.71v-6.75h-.06Z"/>
  <rect class="st0" x="13.13" y="65.62" width="26.2" height="1.5"/>
  <rect class="st0" x="14.12" y="62.16" width="25.21" height="1.5"/>
  <path class="st0" d="M63.06,31.72c2.81,4.49,6.02,7.73,9.73,10.07,3.71,2.31,7.89,3.74,12.6,4.62.37.09.62.4.62.75v14.84c0,18.56-5.36,20.74-12.29,23.58-3.37,1.34-7.14,2.9-10.76,6.77-.28.31-.75.31-1.06.03l-.03-.03c-3.62-3.87-7.36-5.43-10.73-6.77-6.92-2.84-12.29-5.02-12.29-23.58v-14.84c0-.37.28-.72.65-.75,4.68-.87,8.86-2.31,12.54-4.62,3.71-2.34,6.95-5.58,9.73-10.07.22-.34.69-.44,1.03-.22.12.06.19.12.25.22h0ZM71.97,43.04c-3.59-2.25-6.77-5.33-9.54-9.51-2.78,4.18-5.96,7.27-9.57,9.51-3.71,2.34-7.89,3.8-12.51,4.74v14.22c0,17.53,4.96,19.55,11.35,22.17,3.34,1.37,7.05,2.87,10.73,6.58,3.65-3.71,7.36-5.21,10.73-6.58,6.39-2.62,11.35-4.65,11.35-22.17v-14.22c-4.65-.94-8.79-2.4-12.54-4.74h0Z"/>
  <path class="st0" d="M49.39,66.04c-.18-.43,0-.97.4-1.15.43-.22.97-.04,1.19.4l3.49,7.23,22.07-19.23c.36-.32.9-.29,1.22.07.29.36.25.9-.11,1.22l-22.86,19.95c-.07.04-.14.11-.22.14-.43.22-.97.04-1.15-.4l-4.03-8.23Z"/>
</svg>