<?xml version="1.0" encoding="UTF-8"?>
<svg id="Capa_1" xmlns="http://www.w3.org/2000/svg" version="1.1" viewBox="0 0 98.91 111.79">
  <!-- Generator: Adobe Illustrator 29.7.1, SVG Export Plug-In . SVG Version: 2.1.1 Build 8)  -->
  <defs>
    <style>
      .st0 {
        fill: #00377b;
      }
    </style>
  </defs>
  <path class="st0" d="M61.27,44.51c.35,0,.64-.29.64-.64v-14.26c0-.35-.3-.64-.64-.64-.37,0-.68.29-.68.64v14.26c0,.35.3.64.68.64ZM66.09,23.91s-.01-.04-.01-.06v-.02s0-.03,0-.03c-.02-.05-.03-.09-.05-.12-.02-.03-.04-.06-.07-.09-.03-.04-.07-.08-.11-.11-.03-.02-.05-.04-.08-.06-.04-.02-.07-.03-.11-.04l.02-.12-.05.11-16-4.48c-.11-.02-.22-.03-.36,0l-15.96,4.48c-.08.03-.13.05-.19.09-.03.02-.05.03-.05.03-.04.03-.08.07-.12.14l-.02.03c-.04.06-.06.12-.07.2v.05s-.02.04-.02.06v22.43c0,.28.2.53.51.62l15.91,3.9s0,0,.01,0c.03,0,.07,0,.11.02.06.01.14.01.21,0,.05,0,.1-.02.15-.02l15.88-3.9c.31-.08.51-.33.51-.61v-22.41s0-.05-.01-.07ZM48.81,49.47l-.15-.04-14.53-3.54v-21.08l.15.04,14.53,3.55v21.07ZM49.45,27.21l-13.45-3.27,13.45-3.75h.03s13.42,3.75,13.42,3.75l-3.12.76-10.34,2.51ZM64.81,45.88l-.09.02-14.62,3.56v-21.07l.09-.02,14.62-3.57v21.09ZM58.1,42.93c.36,0,.64-.3.64-.68v-11.04c0-.37-.29-.68-.64-.68s-.64.29-.64.68v11.04c0,.39.27.68.64.68Z"/>
  <g>
    <path class="st0" d="M44.88,86.24l.67-5.54.46-3.95.15-1.33.09-.93c.03-.06.03-.14,0-.2v-.26c-.03-.12-.06-.23-.09-.32-.03-.12-.06-.23-.09-.35-.03-.12-.09-.26-.15-.38-.06-.15-.12-.29-.17-.44-.09-.17-.17-.32-.23-.46-.09-.14-.17-.32-.26-.47-.12-.2-.23-.38-.32-.55-.12-.17-.26-.35-.38-.55-.15-.2-.29-.38-.41-.58-.17-.2-.32-.41-.46-.58-.14-.2-.32-.38-.46-.58-.17-.2-.35-.38-.52-.58-.17-.2-.35-.38-.49-.55-.17-.17-.35-.35-.49-.49-1.04-.9-1.94-1.71-2.7-2.47-.76-.78-1.39-1.51-1.95-2.21-.55-.7-1.05-1.39-1.48-2.09-.44-.67-.84-1.36-1.31-2.09v-.06c-.26-.41-.49-.81-.78-1.31-.29-.46-.58-.93-.9-1.39-.32-.49-.67-1.02-1.05-1.57-.38-.52-.78-1.07-1.28-1.71l-.17-.14-.2-.17c-.09-.06-.17-.12-.23-.14-.09-.06-.17-.12-.26-.15-.09-.06-.17-.09-.26-.14-.09-.03-.17-.06-.26-.12-.12-.03-.2-.06-.29-.09-.09-.03-.17-.06-.29-.06-.09-.03-.17-.06-.26-.06-.09-.03-.17-.03-.26-.06h-.52c-.09,0-.14.03-.23.03-.06.03-.12.03-.17.06h-.03c-.06,0-.09.03-.17.06-.03.03-.09.06-.15.06l-.12.09-.09.09-.23.23c-.12.2-.2.43-.23.7-.03.32,0,.7.09,1.1.06.46.2.96.41,1.48.2.55.46,1.1.76,1.71.29.61.64,1.25.99,1.92.38.64.78,1.31,1.19,1.97.81,1.28,1.68,2.64,2.55,3.92l.06.09c2.09,3.16,3.92,5.95,4.18,7.72.03.32.03.43,0,.73v.09c-.06.23-.09.29-.17.52l-.03.06-.09.14-.06.06-.12.15-.06.06-.12.12-.06.06-.17.09-.06.06-.14.06-.09.03-.2.09-.23.03-.17.03h-.17c-.2,0-.32-.03-.52-.09l-.23-.09-.09-.06-.14-.09-.09-.06-.12-.12-.06-.06c-.06-.06-.12-.14-.17-.2-.26-.38-.52-.75-.81-1.19-.32-.41-.64-.87-.99-1.31-.67-.87-1.45-1.86-2.27-2.9l-.09-.06c-2.03-2.55-4.27-5.37-6.04-8.1-1.83-2.79-3.16-5.49-3.37-7.78-.03-.26-.03-.52-.03-.76,0-.26,0-.49.03-.73.06-.26.09-.49.14-.72.06-.23.15-.44.23-.67.09-.2.2-.44.32-.61.12-.2.26-.41.41-.58.14-.17.29-.35.46-.52s.38-.32.55-.46c.12-.09.23-.14.32-.2.12-.09.23-.14.35-.2.09-.06.23-.12.35-.17.14-.06.26-.12.38-.15l.12-.06-.29-10.83-.2-6.36v-.2l-.03-.26-.03-.14-.06-.2-.03-.14-.06-.14-.09-.15-.06-.12-.09-.12-.12-.14-.09-.09-.12-.12-.14-.12-.14-.09-.17-.09-.2-.09-.23-.09-.29-.06-.12-.03-.52,2.61-.49,2.53-.32,1.77-.32,1.71-.32,1.97-.12.61c-.06.46-.14.93-.2,1.25-.03.26-.17,1.28-.38,2.79-.09.78-.2,1.66-.29,2.56-.09.93-.2,1.92-.29,3.02-.09,1.07-.17,2.15-.23,3.16-.06,1.05-.09,2.09-.12,3.05,0,.99.03,1.92.09,2.76.06.73.15,1.36.29,1.89.03.14.09.32.14.46.06.17.12.32.17.49.09.17.15.35.23.55.09.2.2.38.29.55.09.2.2.41.32.61.12.17.23.41.38.64.14.26.29.46.41.64.15.2.29.44.46.67.46.67.96,1.34,1.48,1.95.61.75,1.19,1.45,1.74,2.06.38.41.7.73.96,1.02.44.47.75.78.87.9h.03c.26.23.52.44.75.67.29.23.52.49.75.73.26.26.49.52.73.78.26.26.49.55.7.81.23.32.46.61.67.87.2.32.41.64.61.9.17.32.38.64.55.96.17.32.35.64.52.99.09.18.2.41.32.64.12.26.2.49.29.7.09.23.17.43.26.67.09.26.17.46.23.67.15.35.23.76.35,1.1l.09.35c0,.09,0,.17.03.29,0,.09,0,.2-.03.29l-.17,1.1-.17,1.02-.12.93-.12.87-.12.84c-.03.26-.03.49-.06.76h0c-.03.23-.06.46-.06.75-.03.23-.03.46-.03.64l-.03.55v.52c0,.14,0,.29.03.44,0,.14,0,.26.03.38l.03.26,13.67,1.74.7-5.37ZM46.71,80.84c-.49,4.04-1.02,8.04-1.51,12.08l-15.62-2c-.06-.2-.12-.41-.17-.58-.03-.09-.03-.18-.06-.29,0-.12-.03-.2-.03-.32-.03-.12-.03-.26-.03-.43-.03-.15-.03-.29-.03-.49v-.52l.03-.61c0-.23,0-.43.03-.67l.06-.76c0-.2.03-.47.09-.78l.09-.87.12-.87.15-.96.14-1.02.17-1.07.03-.12-.03-.12-.06-.26-.09-.32-.23-.7c-.06-.2-.14-.43-.2-.64-.09-.2-.17-.41-.26-.64-.09-.23-.2-.43-.29-.64-.06-.17-.17-.38-.29-.64-.15-.29-.32-.58-.49-.9-.15-.29-.32-.58-.52-.9-.2-.29-.38-.58-.58-.87-.2-.26-.41-.55-.61-.81-.2-.26-.43-.52-.67-.78-.2-.23-.44-.46-.67-.73-.23-.23-.46-.46-.73-.67-.23-.23-.49-.46-.73-.67l-.06-.03c-.12-.12-.44-.44-.93-.93-.29-.32-.64-.67-.99-1.05-.52-.61-1.16-1.31-1.8-2.09-.49-.64-1.02-1.31-1.51-2.03-.15-.2-.29-.43-.46-.7-.17-.26-.32-.49-.44-.67-.14-.2-.26-.43-.41-.67-.12-.23-.23-.44-.35-.64-.09-.2-.2-.41-.29-.61-.09-.2-.17-.41-.26-.61-.06-.17-.15-.38-.2-.55-.06-.2-.12-.38-.17-.55-.14-.58-.26-1.28-.32-2.09-.06-.84-.09-1.83-.09-2.87.03-.99.06-2.03.12-3.11s.15-2.15.23-3.19c.09-1.01.2-2.03.29-3.02.12-1.02.2-1.86.29-2.58.2-1.48.35-2.55.38-2.82v-.03c.09-.49.17-.87.23-1.25.14-.84.29-1.71.44-2.58.55-3.19,1.19-6.36,1.83-9.55l.49-.06c.29,0,.49.03.78.06.26.06.46.14.73.23.09.03.17.06.32.12,3.02,1.42,2,7.4,2.06,9.49l.32,11.7-.58.17-.32.12c-.12.06-.23.09-.32.15-.09.03-.17.09-.26.12-.12.06-.2.12-.29.17l-.23.17c-.17.09-.32.23-.46.35-.12.12-.23.26-.35.41-.12.14-.2.29-.32.43-.09.14-.17.32-.23.49-.06.14-.12.32-.17.52-.06.17-.09.35-.12.55-.03.2-.03.38-.03.58,0,.23,0,.43.03.67.17,2.06,1.45,4.59,3.16,7.23,1.77,2.7,3.98,5.49,6.01,8.01l.06.09c.81.99,1.57,1.97,2.29,2.9.35.46.7.93.99,1.33.32.43.61.84.84,1.22l.06.06.06.06.09.03.06.03.12.03c.15.03.17.03.32.03l.09-.03.06-.03.09-.03.09-.06.06-.09.06-.06.06-.09.03-.09.03-.03.03-.12v-.23l-.03-.17c-.23-1.54-2-4.21-4.01-7.26l-.06-.09c-.84-1.25-1.71-2.58-2.55-3.95-.44-.67-.84-1.37-1.22-2.03-.38-.67-.73-1.33-1.04-1.97-.29-.61-.55-1.22-.76-1.8-.23-.58-.38-1.13-.49-1.68-.09-.49-.12-.99-.06-1.42.03-.47.17-.9.44-1.25.12-.14.23-.26.32-.41.09-.06.15-.12.23-.17.09-.06.17-.12.26-.14.09-.06.17-.12.26-.14.09-.03.17-.06.29-.12h.03c.09-.03.2-.06.29-.06h0c.12-.03.23-.03.32-.06h.7l.06.03c.12,0,.23,0,.35.03.12.03.23.06.35.09.09,0,.2.03.35.09.12.03.23.09.35.12.12.03.23.09.32.14.14.06.23.09.35.14.09.06.2.12.32.2.09.06.2.12.29.2.2.15.35.26.52.44l.09.06c.46.64.9,1.22,1.31,1.8.41.55.76,1.07,1.07,1.6.35.49.64.99.93,1.42.26.44.52.9.78,1.33l.03.03c.41.73.81,1.39,1.28,2.06.41.67.87,1.34,1.39,2,.52.67,1.13,1.36,1.89,2.12.73.76,1.6,1.54,2.64,2.41l.03.03c.17.18.35.35.52.52.17.2.35.41.52.58.17.2.35.41.55.61.14.2.32.41.49.61.14.23.32.44.46.61.14.2.29.41.44.61.12.2.26.41.38.61.15.2.26.41.38.58.09.17.17.35.26.52.12.17.2.35.26.49.09.17.15.35.2.49.09.17.15.32.17.46.06.14.09.26.12.41.06.14.09.29.09.44.03.12.03.23.03.38.03.14.03.26,0,.38-.23.7-.7,6.18-.7,6.24h0Z"/>
    <path class="st0" d="M54.72,91.62l13.67-1.74.03-.26c.03-.12.03-.23.03-.38.03-.15.03-.29.03-.44v-.52s-.03-.55-.03-.55c0-.17,0-.41-.03-.64,0-.29-.03-.52-.06-.75h0c-.03-.26-.03-.49-.06-.76l-.12-.84-.12-.87-.12-.93-.17-1.02-.17-1.1c-.03-.09-.03-.2-.03-.29.03-.12.03-.2.03-.29l.09-.35c.12-.35.2-.76.35-1.1.06-.2.14-.41.23-.67.09-.23.17-.44.26-.67.09-.2.17-.44.29-.7.12-.23.23-.46.32-.64.17-.35.35-.67.52-.99.17-.32.38-.64.55-.96.2-.26.41-.58.61-.9.2-.26.44-.55.67-.87.2-.26.44-.55.7-.81.23-.26.46-.52.73-.78.23-.23.46-.49.75-.73.23-.23.49-.43.75-.67h.03c.12-.12.44-.43.87-.9.26-.29.58-.61.96-1.02.55-.61,1.13-1.31,1.74-2.06.52-.61,1.02-1.28,1.48-1.95.17-.23.32-.46.46-.67.12-.17.26-.38.41-.64.15-.23.26-.46.38-.64.12-.2.23-.41.32-.61.09-.17.2-.35.29-.55.09-.2.14-.38.23-.55.06-.17.12-.32.17-.49.06-.14.12-.32.14-.46.14-.52.23-1.16.29-1.89.06-.84.09-1.77.09-2.76-.03-.96-.06-2-.12-3.05-.06-1.02-.15-2.09-.23-3.16-.09-1.1-.2-2.09-.29-3.02-.09-.9-.2-1.77-.29-2.56-.2-1.51-.35-2.53-.38-2.79-.06-.32-.14-.78-.2-1.25l-.12-.61-.32-1.97-.32-1.71-.32-1.77-.49-2.53-.52-2.61-.12.03-.29.06-.23.09-.2.09-.17.09-.14.09-.14.12-.12.12-.09.09-.12.14-.09.12-.06.12-.09.15-.06.14-.03.14-.06.2-.03.14-.03.26v.2s-.2,6.36-.2,6.36l-.29,10.83.12.06c.12.03.23.09.38.15.12.06.26.12.35.17.12.06.23.12.35.2.09.06.2.12.32.2.17.14.38.29.55.46s.32.35.46.52c.14.17.29.38.41.58.12.17.23.41.32.61.09.23.17.44.23.67.06.23.09.46.14.72.03.23.03.47.03.73,0,.23,0,.49-.03.76-.2,2.29-1.54,4.99-3.37,7.78-1.77,2.73-4.01,5.54-6.04,8.1l-.09.06c-.81,1.05-1.6,2.03-2.27,2.9-.35.44-.67.9-.99,1.31-.29.44-.55.81-.81,1.19-.06.06-.12.15-.17.2l-.06.06-.12.12-.09.06-.14.09-.09.06-.23.09c-.2.06-.32.09-.52.09h-.17l-.17-.03-.23-.03-.2-.09-.09-.03-.14-.06-.06-.06-.17-.09-.06-.06-.12-.12-.06-.06-.12-.15-.06-.06-.09-.14-.03-.06c-.09-.23-.12-.29-.17-.52v-.09c-.03-.29-.03-.41,0-.73.26-1.77,2.09-4.56,4.18-7.72l.06-.09c.87-1.28,1.74-2.64,2.55-3.92.41-.67.81-1.33,1.19-1.97.35-.67.7-1.31.99-1.92.29-.61.55-1.16.76-1.71.2-.52.35-1.02.41-1.48.09-.41.12-.78.09-1.1-.03-.26-.12-.49-.23-.7l-.23-.23-.09-.09-.12-.09c-.06,0-.12-.03-.15-.06-.09-.03-.12-.06-.17-.06h-.03c-.06-.03-.12-.03-.17-.06-.09,0-.15-.03-.23-.03h-.49s-.03,0-.03,0c-.09.03-.17.03-.26.06-.09,0-.17.03-.26.06-.12,0-.2.03-.29.06-.09.03-.17.06-.29.09-.09.06-.17.09-.26.12-.09.06-.17.09-.26.14-.09.03-.17.09-.26.15-.06.03-.15.09-.23.14l-.2.17-.17.14c-.49.64-.9,1.19-1.28,1.71-.38.55-.73,1.07-1.05,1.57-.32.46-.61.93-.9,1.39-.29.49-.52.9-.78,1.31v.06c-.46.73-.87,1.42-1.31,2.09-.44.7-.93,1.39-1.48,2.09-.55.7-1.19,1.42-1.95,2.21-.75.75-1.65,1.57-2.7,2.47-.15.14-.32.32-.49.49-.15.17-.32.35-.49.55-.17.2-.35.38-.52.58-.15.2-.32.38-.46.58-.14.17-.29.38-.46.58-.12.2-.26.38-.41.58-.12.2-.26.38-.38.55-.09.17-.2.35-.32.55-.09.14-.17.32-.26.47-.06.14-.14.29-.23.46-.06.14-.12.29-.17.44-.06.12-.12.26-.15.38-.03.12-.06.23-.09.35-.03.09-.06.2-.09.32v.26c-.03.06-.03.14,0,.2l.09.93.15,1.33.46,3.95.67,5.54.7,5.37ZM52.2,80.84c0-.06-.46-5.54-.7-6.24-.03-.12-.03-.23,0-.38,0-.14,0-.26.03-.38,0-.14.03-.29.09-.44.03-.14.06-.26.12-.41.03-.15.09-.29.17-.46.06-.15.12-.32.2-.49.06-.14.14-.32.26-.49.09-.17.17-.35.26-.52.12-.17.23-.38.38-.58.12-.2.26-.41.38-.61.15-.2.29-.41.44-.61.15-.17.32-.38.46-.61.17-.2.35-.41.49-.61.2-.2.38-.41.55-.61.17-.17.35-.38.52-.58.17-.17.35-.35.52-.52l.03-.03c1.05-.87,1.92-1.65,2.64-2.41.75-.76,1.36-1.45,1.89-2.12.52-.67.99-1.34,1.39-2,.46-.67.87-1.33,1.28-2.06l.03-.03c.26-.43.52-.9.78-1.33.29-.44.58-.93.93-1.42.32-.52.67-1.04,1.07-1.6.41-.58.84-1.16,1.31-1.8l.09-.06c.17-.17.32-.29.52-.44.09-.09.2-.14.29-.2.12-.09.23-.14.32-.2.12-.06.2-.09.35-.14.09-.06.2-.12.32-.14.12-.03.23-.09.35-.12.14-.06.26-.09.35-.09.12-.03.23-.06.35-.09.12-.03.23-.03.35-.03l.06-.03h.7c.09.03.2.03.32.06h0c.09,0,.2.03.29.06h.03c.12.06.2.09.29.12.09.03.17.09.26.14.09.03.17.09.26.14.09.06.14.12.23.17.09.14.2.26.32.41.26.35.41.78.44,1.25.06.43.03.93-.06,1.42-.12.55-.26,1.1-.49,1.68-.2.58-.46,1.19-.76,1.8-.32.64-.67,1.31-1.04,1.97-.38.67-.78,1.36-1.22,2.03-.84,1.36-1.71,2.7-2.55,3.95l-.06.09c-2,3.05-3.77,5.72-4.01,7.26l-.03.17v.23s.03.12.03.12l.03.03.03.09.06.09.06.06.06.09.09.06.09.03.06.03.09.03c.14,0,.17,0,.32-.03l.12-.03.06-.03.09-.03.06-.06.06-.06c.23-.38.52-.78.84-1.22.29-.41.64-.87.99-1.33.73-.93,1.48-1.92,2.29-2.9l.06-.09c2.03-2.53,4.24-5.31,6.01-8.01,1.71-2.64,2.99-5.17,3.16-7.23.03-.23.03-.44.03-.67s0-.38-.03-.58c-.03-.2-.06-.38-.12-.55-.06-.2-.12-.38-.17-.52-.06-.17-.14-.35-.23-.49-.12-.14-.2-.29-.32-.43-.12-.14-.23-.29-.35-.41-.14-.12-.29-.26-.46-.35l-.23-.17c-.09-.06-.17-.12-.29-.17-.09-.03-.17-.09-.26-.12-.09-.06-.2-.09-.32-.15l-.32-.12-.58-.17.32-11.7c.06-2.09-.96-8.07,2.06-9.49.14-.06.23-.09.32-.12.26-.09.46-.18.73-.23.29-.03.49-.06.78-.06l.49.06c.64,3.19,1.28,6.36,1.83,9.55.15.87.29,1.74.44,2.58.06.38.14.75.23,1.25v.03c.03.26.17,1.33.38,2.82.09.73.17,1.57.29,2.58.09.99.2,2,.29,3.02.09,1.05.17,2.12.23,3.19s.09,2.12.12,3.11c0,1.05-.03,2.03-.09,2.87-.06.81-.17,1.51-.32,2.09-.06.17-.12.35-.17.55-.06.17-.14.38-.2.55-.09.2-.17.41-.26.61-.09.2-.2.41-.29.61-.12.2-.23.41-.35.64-.14.23-.26.46-.41.67-.12.17-.26.41-.44.67-.17.26-.32.49-.46.7-.49.73-1.02,1.39-1.51,2.03-.64.78-1.28,1.48-1.8,2.09-.35.38-.7.73-.99,1.05-.49.49-.81.81-.93.93l-.06.03c-.23.2-.49.43-.73.67-.26.2-.49.44-.73.67-.23.26-.46.49-.67.73-.23.26-.46.52-.67.78-.2.26-.41.55-.61.81-.2.29-.38.58-.58.87-.2.32-.38.61-.52.9-.17.32-.35.61-.49.9-.12.26-.23.46-.29.64-.09.2-.2.41-.29.64-.09.23-.17.44-.26.64-.06.2-.14.43-.2.64l-.23.7-.09.32-.06.26-.03.12.03.12.17,1.07.14,1.02.15.96.12.87.09.87c.06.32.09.58.09.78l.06.76c.03.23.03.43.03.67l.03.61v.52c0,.2,0,.35-.03.49,0,.17,0,.32-.03.43,0,.12-.03.2-.03.32-.03.12-.03.2-.06.29-.06.17-.12.38-.17.58l-15.62,2c-.49-4.04-1.02-8.04-1.51-12.08h0Z"/>
  </g>
</svg>