<?xml version="1.0" encoding="UTF-8"?>
<svg id="Capa_1" xmlns="http://www.w3.org/2000/svg" version="1.1" viewBox="0 0 98.91 111.79">
  <!-- Generator: Adobe Illustrator 29.7.1, SVG Export Plug-In . SVG Version: 2.1.1 Build 8)  -->
  <defs>
    <style>
      .st0 {
        fill: #00377b;
      }
    </style>
  </defs>
  <path class="st0" d="M74.06,54.49l-22.17,22.17-6.21-10.76c-.23-.39-.71-.52-1.11-.29-.39.23-.52.71-.33,1.1l6.76,11.7c.23.39.72.52,1.11.29l.16-.13,22.95-22.95c.32-.29.32-.81,0-1.14-.33-.33-.85-.33-1.17,0ZM76.83,49.52c-1.74-1.74-3.74-3.2-5.93-4.34h0s0,0,0,0v-21.12c0-.78-.34-1.5-.84-2-.5-.5-1.22-.84-2-.84H17.84c-.75,0-1.43.31-1.93.81l-.06.03c-.5.5-.81,1.22-.81,2v55.2c0,.75.31,1.47.81,2,.53.5,1.22.81,2,.81h23.59c.43.51.89,1.01,1.36,1.49,4.36,4.36,10.37,7.02,17.03,7.02s12.64-2.67,17-7.02c4.36-4.35,7.05-10.37,7.05-17.03s-2.7-12.64-7.05-17ZM32.49,22.81l.03-.06h18.71v6.75h-18.71l-.03-.06v-6.63ZM16.53,74.3h20.52c.23.67.48,1.32.76,1.96h-21.28v-1.96ZM17.84,80.57c-.34,0-.69-.16-.94-.37-.22-.25-.37-.59-.37-.94v-1.5h22.01c.51.98,1.09,1.91,1.73,2.81h-22.43ZM75.65,82.38c-4.03,4.06-9.65,6.57-15.83,6.57s-11.8-2.5-15.86-6.57c-.33-.33-.64-.67-.94-1.01-.64-.73-1.25-1.49-1.79-2.3-.29-.42-.55-.86-.81-1.31-.28-.49-.55-.99-.8-1.5-.31-.64-.59-1.29-.83-1.96-.18-.49-.34-.99-.49-1.5-.58-1.99-.89-4.1-.89-6.28,0-6.18,2.5-11.8,6.57-15.86,4.06-4.03,9.65-6.57,15.86-6.57.95,0,1.89.07,2.81.18.56.07,1.12.16,1.67.27.21.04.41.09.61.14.8.19,1.58.42,2.34.69-.52-.69-1.03-1.41-1.53-2.17-.68-.17-1.38-.32-2.08-.43-1.24-.2-2.52-.31-3.81-.31-6.63,0-12.64,2.7-17,7.02l-.03.03c-4.36,4.36-7.02,10.37-7.02,17,0,2.18.29,4.28.82,6.28h-20.07V24.06c0-.34.16-.69.37-.94l.03-.03c.25-.22.56-.34.9-.34h13.17s0,.04,0,.06v6.63c0,.44.16.81.47,1.12.28.28.65.47,1.09.47h18.62c.44,0,.81-.19,1.12-.47.28-.31.44-.69.44-1.12v-6.63s0-.04,0-.06h15.33c.34,0,.69.16.94.37.25.25.37.59.37.94v20.39c-1.17-.51-2.38-.92-3.64-1.24.5.76,1.01,1.48,1.53,2.17.72.25,1.42.54,2.11.87.52.25,1.03.52,1.53.8h0c1.75,1,3.36,2.23,4.76,3.65,4.06,4.03,6.57,9.65,6.57,15.83s-2.5,11.8-6.57,15.86Z"/>
</svg>